<?xml version="1.0" encoding="UTF-8" standalone="no"?>
<!DOCTYPE svg PUBLIC "-//W3C//DTD SVG 1.1//EN"
 "http://www.w3.org/Graphics/SVG/1.1/DTD/svg11.dtd">
<!-- Generated by graphviz version 14.1.3 (20260303.0454)
 -->
<!-- Title: methodology Pages: 1 -->
<svg width="919pt" height="793pt"
 viewBox="0.00 0.00 919.00 793.00" xmlns="http://www.w3.org/2000/svg" xmlns:xlink="http://www.w3.org/1999/xlink">
<g id="graph0" class="graph" transform="scale(1 1) rotate(0) translate(36 756.9)">
<title>methodology</title>
<polygon fill="#fafaf8" stroke="none" points="-36,36 -36,-756.9 883.4,-756.9 883.4,36 -36,36"/>
<!-- title -->
<g id="node1" class="node">
<title>title</title>
<polygon fill="none" stroke="none" stroke-width="0.8" points="581.4,-720.9 351,-720.9 351,-684.9 581.4,-684.9 581.4,-720.9"/>
<text xml:space="preserve" text-anchor="middle" x="466.2" y="-698.05" font-family="Georgia" font-size="13.00" fill="#333333">Elimination loop</text>
</g>
<!-- seed -->
<g id="node2" class="node">
<title>seed</title>
<polygon fill="#f0ede6" stroke="#c4b99a" stroke-width="0.8" points="581.4,-644.9 351,-644.9 351,-608.9 581.4,-608.9 581.4,-644.9"/>
<text xml:space="preserve" text-anchor="middle" x="466.2" y="-629.4" font-family="Georgia" font-size="10.00">Working parser for one version</text>
<text xml:space="preserve" text-anchor="middle" x="466.2" y="-617.4" font-family="Georgia" font-size="10.00">v29 chosen: largest sample set</text>
</g>
<!-- title&#45;&gt;seed -->
<!-- run -->
<g id="node4" class="node">
<title>run</title>
<polygon fill="#ffffff" stroke="#dddddd" stroke-width="0.8" points="581.4,-561.64 351,-561.64 351,-525.64 581.4,-525.64 581.4,-561.64"/>
<text xml:space="preserve" text-anchor="middle" x="466.2" y="-540.14" font-family="Georgia" font-size="10.00">Run against full corpus</text>
</g>
<!-- seed&#45;&gt;run -->
<g id="edge2" class="edge">
<title>seed&#45;&gt;run</title>
<path fill="none" stroke="#999999" stroke-width="0.7" d="M466.2,-608.83C466.2,-608.83 466.2,-568.02 466.2,-568.02"/>
<polygon fill="#999999" stroke="#999999" stroke-width="0.7" points="467.95,-568.02 466.2,-563.02 464.45,-568.02 467.95,-568.02"/>
</g>
<!-- corpus -->
<g id="node3" class="node">
<title>corpus</title>
<polygon fill="#f0ede6" stroke="#c4b99a" stroke-width="0.8" points="847.4,-644.9 617,-644.9 617,-608.9 847.4,-608.9 847.4,-644.9"/>
<text xml:space="preserve" text-anchor="middle" x="732.2" y="-629.4" font-family="Georgia" font-size="10.00">1,079 samples scanned</text>
<text xml:space="preserve" text-anchor="middle" x="732.2" y="-617.4" font-family="Georgia" font-size="10.00">1,067 tested for parity</text>
</g>
<!-- corpus&#45;&gt;run -->
<g id="edge3" class="edge">
<title>corpus&#45;&gt;run</title>
<path fill="none" stroke="#999999" stroke-width="0.7" d="M616.76,-627C602.7,-627 593.17,-627 593.17,-627 593.17,-627 593.17,-544 593.17,-544 593.17,-544 587.51,-544 587.51,-544"/>
<polygon fill="#999999" stroke="#999999" stroke-width="0.7" points="587.51,-542.25 582.51,-544 587.51,-545.75 587.51,-542.25"/>
</g>
<!-- distribution -->
<g id="node12" class="node">
<title>distribution</title>
<polygon fill="#f0ede6" stroke="#c4b99a" stroke-width="0.8" points="847.4,-568.9 617,-568.9 617,-518.38 847.4,-518.38 847.4,-568.9"/>
<text xml:space="preserve" text-anchor="middle" x="732.2" y="-555.54" font-family="Georgia" font-size="8.00">Sample distribution</text>
<text xml:space="preserve" text-anchor="middle" x="732.2" y="-545.79" font-family="Georgia" font-size="8.00">v31: 813 (75%) &#160;&#160;v29: 177 (16%)</text>
<text xml:space="preserve" text-anchor="middle" x="732.2" y="-536.04" font-family="Georgia" font-size="8.00">v27: 46 (4%) &#160;&#160;v24: 39 (4%)</text>
<text xml:space="preserve" text-anchor="middle" x="732.2" y="-526.29" font-family="Georgia" font-size="8.00">v22: 1 (32&#45;bit only) &#160;&#160;encrypted: 3</text>
</g>
<!-- corpus&#45;&gt;distribution -->
<g id="edge12" class="edge">
<title>corpus&#45;&gt;distribution</title>
<path fill="none" stroke="#c4b99a" stroke-width="0.7" stroke-dasharray="1,5" d="M732.2,-608.83C732.2,-597.26 732.2,-582.06 732.2,-569.25"/>
</g>
<!-- compare -->
<g id="node5" class="node">
<title>compare</title>
<polygon fill="#ffffff" stroke="#dddddd" stroke-width="0.8" points="496.4,-478.38 266,-478.38 266,-442.38 496.4,-442.38 496.4,-478.38"/>
<text xml:space="preserve" text-anchor="middle" x="381.2" y="-462.88" font-family="Georgia" font-size="10.00">Compare to Il2CppDumper</text>
<text xml:space="preserve" text-anchor="middle" x="381.2" y="-450.88" font-family="Georgia" font-size="10.00">method addresses, counts, tokens</text>
</g>
<!-- run&#45;&gt;compare -->
<g id="edge4" class="edge">
<title>run&#45;&gt;compare</title>
<path fill="none" stroke="#999999" stroke-width="0.7" d="M423.7,-525.57C423.7,-525.57 423.7,-484.76 423.7,-484.76"/>
<polygon fill="#999999" stroke="#999999" stroke-width="0.7" points="425.45,-484.76 423.7,-479.76 421.95,-484.76 425.45,-484.76"/>
</g>
<!-- classify -->
<g id="node6" class="node">
<title>classify</title>
<polygon fill="#fdf8ee" stroke="#c4a265" stroke-width="0.8" points="496.4,-402.38 266,-402.38 266,-366.38 496.4,-366.38 496.4,-402.38"/>
<text xml:space="preserve" text-anchor="middle" x="381.2" y="-386.88" font-family="Georgia" font-size="10.00" fill="#8b6914">Classify failures</text>
<text xml:space="preserve" text-anchor="middle" x="381.2" y="-374.88" font-family="Georgia" font-size="10.00" fill="#8b6914">parse error / wrong count / crash / timeout</text>
</g>
<!-- compare&#45;&gt;classify -->
<g id="edge5" class="edge">
<title>compare&#45;&gt;classify</title>
<path fill="none" stroke="#999999" stroke-width="0.7" d="M381.2,-441.98C381.2,-441.98 381.2,-408.67 381.2,-408.67"/>
<polygon fill="#999999" stroke="#999999" stroke-width="0.7" points="382.95,-408.67 381.2,-403.67 379.45,-408.67 382.95,-408.67"/>
</g>
<!-- constraint -->
<g id="node7" class="node">
<title>constraint</title>
<polygon fill="#fdf8ee" stroke="#c4a265" stroke-width="0.8" points="230.4,-326.38 0,-326.38 0,-290.38 230.4,-290.38 230.4,-326.38"/>
<text xml:space="preserve" text-anchor="middle" x="115.2" y="-310.88" font-family="Georgia" font-size="10.00" fill="#8b6914">Extract constraint</text>
<text xml:space="preserve" text-anchor="middle" x="115.2" y="-298.88" font-family="Georgia" font-size="10.00" fill="#8b6914">version&#45;specific struct layout or offset</text>
</g>
<!-- classify&#45;&gt;constraint -->
<g id="edge6" class="edge">
<title>classify&#45;&gt;constraint</title>
<path fill="none" stroke="#999999" stroke-width="0.7" d="M265.69,-384C193.9,-384 115.2,-384 115.2,-384 115.2,-384 115.2,-332.74 115.2,-332.74"/>
<polygon fill="#999999" stroke="#999999" stroke-width="0.7" points="116.95,-332.74 115.2,-327.74 113.45,-332.75 116.95,-332.74"/>
</g>
<!-- excluded -->
<g id="node11" class="node">
<title>excluded</title>
<polygon fill="#f5f0f0" stroke="#c4a0a0" stroke-width="0.8" points="496.4,-326.38 266,-326.38 266,-290.38 496.4,-290.38 496.4,-326.38"/>
<text xml:space="preserve" text-anchor="middle" x="381.2" y="-310.88" font-family="Georgia" font-size="10.00" fill="#8b4040">4 remaining: 2 v24 timeouts</text>
<text xml:space="preserve" text-anchor="middle" x="381.2" y="-298.88" font-family="Georgia" font-size="10.00" fill="#8b4040">1 corrupt &#160;&#160;1 encrypted (non&#45;XOR)</text>
</g>
<!-- classify&#45;&gt;excluded -->
<g id="edge11" class="edge">
<title>classify&#45;&gt;excluded</title>
<path fill="none" stroke="#c4a0a0" stroke-width="0.7" stroke-dasharray="5,2" d="M381.2,-365.98C381.2,-365.98 381.2,-332.67 381.2,-332.67"/>
<polygon fill="#c4a0a0" stroke="#c4a0a0" stroke-width="0.7" points="382.95,-332.67 381.2,-327.67 379.45,-332.67 382.95,-332.67"/>
<text xml:space="preserve" text-anchor="middle" x="362.82" y="-341.73" font-family="Georgia" font-size="8.00">not fixable</text>
<text xml:space="preserve" text-anchor="middle" x="362.82" y="-331.98" font-family="Georgia" font-size="8.00">yet</text>
</g>
<!-- fix -->
<g id="node8" class="node">
<title>fix</title>
<polygon fill="#ffffff" stroke="#dddddd" stroke-width="0.8" points="363.4,-250.38 133,-250.38 133,-214.38 363.4,-214.38 363.4,-250.38"/>
<text xml:space="preserve" text-anchor="middle" x="248.2" y="-234.88" font-family="Georgia" font-size="10.00">Fix parser</text>
<text xml:space="preserve" text-anchor="middle" x="248.2" y="-222.88" font-family="Georgia" font-size="10.00">add version branch, bounds check, or fallback</text>
</g>
<!-- constraint&#45;&gt;fix -->
<g id="edge7" class="edge">
<title>constraint&#45;&gt;fix</title>
<path fill="none" stroke="#999999" stroke-width="0.7" d="M165.47,-289.98C165.47,-289.98 165.47,-256.67 165.47,-256.67"/>
<polygon fill="#999999" stroke="#999999" stroke-width="0.7" points="167.22,-256.67 165.47,-251.67 163.72,-256.67 167.22,-256.67"/>
</g>
<!-- a1 -->
<g id="node13" class="node">
<title>a1</title>
<polygon fill="none" stroke="none" stroke-width="0.8" points="723.96,-319.57 606.45,-319.57 606.45,-297.19 723.96,-297.19 723.96,-319.57"/>
<text xml:space="preserve" text-anchor="middle" x="665.2" y="-310.53" font-family="Georgia" font-size="8.00" fill="#999999">v24 header: &gt;= 264 not == 264</text>
<text xml:space="preserve" text-anchor="middle" x="665.2" y="-300.78" font-family="Georgia" font-size="8.00" fill="#999999">for sub&#45;version detection</text>
</g>
<!-- constraint&#45;&gt;a1 -->
<g id="edge13" class="edge">
<title>constraint&#45;&gt;a1</title>
<path fill="none" stroke="#cccccc" stroke-width="0.7" stroke-dasharray="1,5" d="M197.93,-290.09C197.93,-280.2 197.93,-270 197.93,-270 197.93,-270 616.76,-270 616.76,-270 616.76,-270 616.76,-286.14 616.76,-297.48"/>
</g>
<!-- regress -->
<g id="node9" class="node">
<title>regress</title>
<polygon fill="#ffffff" stroke="#dddddd" stroke-width="0.8" points="533.4,-174.38 303,-174.38 303,-138.38 533.4,-138.38 533.4,-174.38"/>
<text xml:space="preserve" text-anchor="middle" x="418.2" y="-158.88" font-family="Georgia" font-size="10.00">Regression test</text>
<text xml:space="preserve" text-anchor="middle" x="418.2" y="-146.88" font-family="Georgia" font-size="10.00">verify no previously passing sample broke</text>
</g>
<!-- fix&#45;&gt;regress -->
<g id="edge8" class="edge">
<title>fix&#45;&gt;regress</title>
<path fill="none" stroke="#999999" stroke-width="0.7" d="M333.2,-213.98C333.2,-213.98 333.2,-180.67 333.2,-180.67"/>
<polygon fill="#999999" stroke="#999999" stroke-width="0.7" points="334.95,-180.67 333.2,-175.67 331.45,-180.67 334.95,-180.67"/>
</g>
<!-- regress&#45;&gt;run -->
<g id="edge9" class="edge">
<title>regress&#45;&gt;run</title>
<path fill="none" stroke="#c4a265" stroke-width="0.8" stroke-dasharray="5,2" d="M514.9,-174.54C514.9,-174.54 514.9,-519.31 514.9,-519.31"/>
<polygon fill="#c4a265" stroke="#c4a265" stroke-width="0.8" points="513.15,-519.31 514.9,-524.31 516.65,-519.31 513.15,-519.31"/>
<text xml:space="preserve" text-anchor="middle" x="497.65" y="-349.07" font-family="Georgia" font-size="8.00">next cycle</text>
</g>
<!-- done -->
<g id="node10" class="node">
<title>done</title>
<polygon fill="#e2ede2" stroke="#8baf8b" stroke-width="0.8" points="533.4,-98.38 303,-98.38 303,-62.38 533.4,-62.38 533.4,-98.38"/>
<text xml:space="preserve" text-anchor="middle" x="418.2" y="-82.88" font-family="Georgia" font-size="10.00" fill="#2d5a2d">1,063 / 1,067 pass</text>
<text xml:space="preserve" text-anchor="middle" x="418.2" y="-70.88" font-family="Georgia" font-size="10.00" fill="#2d5a2d">99.6% parity</text>
</g>
<!-- regress&#45;&gt;done -->
<g id="edge10" class="edge">
<title>regress&#45;&gt;done</title>
<path fill="none" stroke="#8baf8b" stroke-width="0.7" d="M418.2,-137.98C418.2,-137.98 418.2,-104.67 418.2,-104.67"/>
<polygon fill="#8baf8b" stroke="#8baf8b" stroke-width="0.7" points="419.95,-104.67 418.2,-99.67 416.45,-104.67 419.95,-104.67"/>
<text xml:space="preserve" text-anchor="middle" x="394.95" y="-113.73" font-family="Georgia" font-size="8.00">all valid</text>
<text xml:space="preserve" text-anchor="middle" x="394.95" y="-103.98" font-family="Georgia" font-size="8.00">samples pass</text>
</g>
<!-- a2 -->
<g id="node14" class="node">
<title>a2</title>
<polygon fill="none" stroke="none" stroke-width="0.8" points="710.08,-243.57 620.32,-243.57 620.32,-221.19 710.08,-221.19 710.08,-243.57"/>
<text xml:space="preserve" text-anchor="middle" x="665.2" y="-234.53" font-family="Georgia" font-size="8.00" fill="#999999">v24 RGCTX fields shift</text>
<text xml:space="preserve" text-anchor="middle" x="665.2" y="-224.78" font-family="Georgia" font-size="8.00" fill="#999999">images offset by 8 bytes</text>
</g>
<!-- a1&#45;&gt;a2 -->
<!-- a3 -->
<g id="node15" class="node">
<title>a3</title>
<polygon fill="none" stroke="none" stroke-width="0.8" points="717.21,-167.57 613.2,-167.57 613.2,-145.19 717.21,-145.19 717.21,-167.57"/>
<text xml:space="preserve" text-anchor="middle" x="665.2" y="-158.53" font-family="Georgia" font-size="8.00" fill="#999999">string table: clamp to EOF</text>
<text xml:space="preserve" text-anchor="middle" x="665.2" y="-148.78" font-family="Georgia" font-size="8.00" fill="#999999">not reject on 1&#45;byte overrun</text>
</g>
<!-- a2&#45;&gt;a3 -->
<!-- a4 -->
<g id="node16" class="node">
<title>a4</title>
<polygon fill="none" stroke="none" stroke-width="0.8" points="725.46,-91.57 604.95,-91.57 604.95,-69.19 725.46,-69.19 725.46,-91.57"/>
<text xml:space="preserve" text-anchor="middle" x="665.2" y="-82.53" font-family="Georgia" font-size="8.00" fill="#999999">old&#45;style CodeRegistration:</text>
<text xml:space="preserve" text-anchor="middle" x="665.2" y="-72.78" font-family="Georgia" font-size="8.00" fill="#999999">scan for methodPointers pattern</text>
</g>
<!-- a3&#45;&gt;a4 -->
<!-- a5 -->
<g id="node17" class="node">
<title>a5</title>
<polygon fill="none" stroke="none" stroke-width="0.8" points="717.96,-22.38 612.45,-22.38 612.45,0 717.96,0 717.96,-22.38"/>
<text xml:space="preserve" text-anchor="middle" x="665.2" y="-13.34" font-family="Georgia" font-size="8.00" fill="#999999">BuildTypeToImageMap:</text>
<text xml:space="preserve" text-anchor="middle" x="665.2" y="-3.59" font-family="Georgia" font-size="8.00" fill="#999999">slice not map (24x speedup)</text>
</g>
<!-- a4&#45;&gt;a5 -->
</g>
</svg>
