<?xml version="1.0" encoding="UTF-8" standalone="no"?>
<!DOCTYPE svg PUBLIC "-//W3C//DTD SVG 1.1//EN"
 "http://www.w3.org/Graphics/SVG/1.1/DTD/svg11.dtd">
<!-- Generated by graphviz version 14.1.3 (20260303.0454)
 -->
<!-- Title: disunity Pages: 1 -->
<svg width="829pt" height="648pt"
 viewBox="0.00 0.00 829.00 648.00" xmlns="http://www.w3.org/2000/svg" xmlns:xlink="http://www.w3.org/1999/xlink">
<g id="graph0" class="graph" transform="scale(1 1) rotate(0) translate(28.8 619.32)">
<title>disunity</title>
<polygon fill="#fafaf8" stroke="none" points="-28.8,28.8 -28.8,-619.32 800.35,-619.32 800.35,28.8 -28.8,28.8"/>
<!-- libil2cpp -->
<g id="node1" class="node">
<title>libil2cpp</title>
<polygon fill="#f0ede6" stroke="#c4b99a" stroke-width="0.8" points="276.6,-590.52 75,-590.52 75,-554.52 276.6,-554.52 276.6,-590.52"/>
<text xml:space="preserve" text-anchor="middle" x="175.8" y="-569.02" font-family="Georgia" font-size="10.00">libil2cpp.so</text>
</g>
<!-- binary -->
<g id="node5" class="node">
<title>binary</title>
<polygon fill="#ffffff" stroke="#dddddd" stroke-width="0.8" points="296.1,-427.77 55.5,-427.77 55.5,-391.77 296.1,-391.77 296.1,-427.77"/>
<text xml:space="preserve" text-anchor="middle" x="175.8" y="-412.27" font-family="Georgia" font-size="10.00">Binary analysis &#160;&#160;&#160;&#160;&#160;&#160;&#160;&#160;&#160;&#160;&#160;&#160;&#160;&#160;&#160;&#160;&#160;&#160;&#160;&#160;&#160;&#160;&#160;&#160;&#160;&#160;&#160;&#160;&#160;&#160;&#160;&#160;566 ms</text>
<text xml:space="preserve" text-anchor="middle" x="175.8" y="-400.27" font-family="Georgia" font-size="10.00">CodeRegistration, MetadataRegistration, RGCTX</text>
</g>
<!-- libil2cpp&#45;&gt;binary -->
<g id="edge2" class="edge">
<title>libil2cpp&#45;&gt;binary</title>
<path fill="none" stroke="#999999" stroke-width="0.7" d="M175.8,-554.17C175.8,-554.17 175.8,-433.87 175.8,-433.87"/>
<polygon fill="#999999" stroke="#999999" stroke-width="0.7" points="177.55,-433.87 175.8,-428.87 174.05,-433.87 177.55,-433.87"/>
</g>
<!-- disasm -->
<g id="node7" class="node">
<title>disasm</title>
<polygon fill="#ffffff" stroke="#dddddd" stroke-width="0.8" points="493.23,-265.02 286.38,-265.02 286.38,-229.02 493.23,-229.02 493.23,-265.02"/>
<text xml:space="preserve" text-anchor="middle" x="389.8" y="-249.52" font-family="Georgia" font-size="10.00">ARM64 disassembly &#160;&#160;&#160;&#160;&#160;&#160;&#160;&#160;&#160;&#160;&#160;&#160;&#160;&#160;&#160;&#160;&#160;&#160;&#160;&#160;&#160;&#160;&#160;&#160;&#160;&#160;&#160;&#160;&#160;&#160;&#160;8.6 s</text>
<text xml:space="preserve" text-anchor="middle" x="389.8" y="-237.52" font-family="Georgia" font-size="10.00">ADRP/LDR tracking, BL/BLR call edges</text>
</g>
<!-- libil2cpp&#45;&gt;disasm -->
<g id="edge11" class="edge">
<title>libil2cpp&#45;&gt;disasm</title>
<path fill="none" stroke="#999999" stroke-width="0.7" stroke-dasharray="1,5" d="M276.87,-573C337.03,-573 401.74,-573 401.74,-573 401.74,-573 401.74,-271.07 401.74,-271.07"/>
<polygon fill="#999999" stroke="#999999" stroke-width="0.7" points="403.49,-271.07 401.74,-266.07 399.99,-271.07 403.49,-271.07"/>
<text xml:space="preserve" text-anchor="middle" x="376.05" y="-407.04" font-family="Georgia" font-size="8.00">code</text>
</g>
<!-- metadata -->
<g id="node2" class="node">
<title>metadata</title>
<polygon fill="#f0ede6" stroke="#c4b99a" stroke-width="0.8" points="610.6,-590.52 409,-590.52 409,-554.52 610.6,-554.52 610.6,-590.52"/>
<text xml:space="preserve" text-anchor="middle" x="509.8" y="-569.02" font-family="Georgia" font-size="10.00">global&#45;metadata.dat</text>
</g>
<!-- parse -->
<g id="node3" class="node">
<title>parse</title>
<polygon fill="#ffffff" stroke="#dddddd" stroke-width="0.8" points="610.6,-513.52 409,-513.52 409,-477.52 610.6,-477.52 610.6,-513.52"/>
<text xml:space="preserve" text-anchor="middle" x="509.8" y="-498.02" font-family="Georgia" font-size="10.00">Parse metadata &#160;&#160;&#160;&#160;&#160;&#160;&#160;&#160;&#160;&#160;&#160;&#160;&#160;&#160;&#160;&#160;&#160;&#160;&#160;&#160;&#160;&#160;&#160;&#160;&#160;&#160;&#160;&#160;&#160;&#160;&#160;&#160;&#160;&#160;&#160;11 ms</text>
<text xml:space="preserve" text-anchor="middle" x="509.8" y="-486.02" font-family="Georgia" font-size="10.00">v24, v27, v29, v31 (auto&#45;detect)</text>
</g>
<!-- metadata&#45;&gt;parse -->
<g id="edge1" class="edge">
<title>metadata&#45;&gt;parse</title>
<path fill="none" stroke="#999999" stroke-width="0.7" d="M509.8,-554.27C509.8,-554.27 509.8,-519.96 509.8,-519.96"/>
<polygon fill="#999999" stroke="#999999" stroke-width="0.7" points="511.55,-519.96 509.8,-514.96 508.05,-519.96 511.55,-519.96"/>
</g>
<!-- decrypt -->
<g id="node4" class="node">
<title>decrypt</title>
<polygon fill="#fdf8ee" stroke="#c4a265" stroke-width="0.8" stroke-dasharray="5,2" points="669.6,-427.77 420,-427.77 420,-391.77 669.6,-391.77 669.6,-427.77"/>
<text xml:space="preserve" text-anchor="middle" x="544.8" y="-412.27" font-family="Georgia" font-size="10.00" fill="#8b6914">Detect encryption</text>
<text xml:space="preserve" text-anchor="middle" x="544.8" y="-400.27" font-family="Georgia" font-size="10.00" fill="#8b6914">report magic, attempt XOR recovery (experimental)</text>
</g>
<!-- parse&#45;&gt;decrypt -->
<g id="edge9" class="edge">
<title>parse&#45;&gt;decrypt</title>
<path fill="none" stroke="#c4a265" stroke-width="0.7" stroke-dasharray="5,2" d="M547.07,-477.33C547.07,-477.33 547.07,-433.99 547.07,-433.99"/>
<polygon fill="#c4a265" stroke="#c4a265" stroke-width="0.7" points="548.82,-433.99 547.07,-428.99 545.32,-433.99 548.82,-433.99"/>
<text xml:space="preserve" text-anchor="middle" x="582.92" y="-449.92" font-family="Georgia" font-size="8.00">encrypted?</text>
</g>
<!-- parse&#45;&gt;binary -->
<g id="edge3" class="edge">
<title>parse&#45;&gt;binary</title>
<path fill="none" stroke="#999999" stroke-width="0.7" d="M412.67,-477.38C412.67,-452.28 412.67,-410 412.67,-410 412.67,-410 302.37,-410 302.37,-410"/>
<polygon fill="#999999" stroke="#999999" stroke-width="0.7" points="302.37,-408.25 297.37,-410 302.37,-411.75 302.37,-408.25"/>
<text xml:space="preserve" text-anchor="middle" x="403.96" y="-412.15" font-family="Georgia" font-size="8.00">version</text>
</g>
<!-- scriptgen -->
<g id="node6" class="node">
<title>scriptgen</title>
<polygon fill="#ffffff" stroke="#dddddd" stroke-width="0.8" points="394.48,-350.77 171.12,-350.77 171.12,-314.77 394.48,-314.77 394.48,-350.77"/>
<text xml:space="preserve" text-anchor="middle" x="282.8" y="-335.27" font-family="Georgia" font-size="10.00">Generate script.json + il2cpp.h &#160;&#160;&#160;&#160;&#160;&#160;&#160;&#160;&#160;&#160;&#160;&#160;&#160;348 ms</text>
<text xml:space="preserve" text-anchor="middle" x="282.8" y="-323.27" font-family="Georgia" font-size="10.00">method addresses, type structures</text>
</g>
<!-- parse&#45;&gt;scriptgen -->
<!-- metagen -->
<g id="node9" class="node">
<title>metagen</title>
<polygon fill="#ffffff" stroke="#dddddd" stroke-width="0.8" points="500.73,-111.02 290.88,-111.02 290.88,-75.02 500.73,-75.02 500.73,-111.02"/>
<text xml:space="preserve" text-anchor="middle" x="395.8" y="-95.52" font-family="Georgia" font-size="10.00">Generate unity_meta.json &#160;&#160;&#160;&#160;&#160;&#160;&#160;&#160;&#160;&#160;&#160;&#160;&#160;&#160;&#160;&#160;&#160;&#160;&#160;&#160;&#160;&#160;1.5 s</text>
<text xml:space="preserve" text-anchor="middle" x="395.8" y="-83.52" font-family="Georgia" font-size="10.00">signatures, comments, call graph</text>
</g>
<!-- parse&#45;&gt;metagen -->
<g id="edge12" class="edge">
<title>parse&#45;&gt;metagen</title>
<path fill="none" stroke="#999999" stroke-width="0.7" stroke-dasharray="1,5" d="M610.91,-496C650.94,-496 687.6,-496 687.6,-496 687.6,-496 687.6,-93 687.6,-93 687.6,-93 506.79,-93 506.79,-93"/>
<polygon fill="#999999" stroke="#999999" stroke-width="0.7" points="506.79,-91.25 501.79,-93 506.79,-94.75 506.79,-91.25"/>
<text xml:space="preserve" text-anchor="middle" x="762.17" y="-287.17" font-family="Georgia" font-size="8.00">types</text>
</g>
<!-- decrypt&#45;&gt;parse -->
<g id="edge10" class="edge">
<title>decrypt&#45;&gt;parse</title>
<path fill="none" stroke="#c4a265" stroke-width="0.7" stroke-dasharray="5,2" d="M483.53,-427.96C483.53,-427.96 483.53,-471.3 483.53,-471.3"/>
<polygon fill="#c4a265" stroke="#c4a265" stroke-width="0.7" points="481.78,-471.3 483.53,-476.3 485.28,-471.3 481.78,-471.3"/>
<text xml:space="preserve" text-anchor="middle" x="505.68" y="-449.92" font-family="Georgia" font-size="8.00">recovered</text>
</g>
<!-- binary&#45;&gt;scriptgen -->
<g id="edge4" class="edge">
<title>binary&#45;&gt;scriptgen</title>
<path fill="none" stroke="#999999" stroke-width="0.7" d="M233.61,-391.52C233.61,-391.52 233.61,-357.21 233.61,-357.21"/>
<polygon fill="#999999" stroke="#999999" stroke-width="0.7" points="235.36,-357.21 233.61,-352.21 231.86,-357.21 235.36,-357.21"/>
</g>
<!-- scriptgen&#45;&gt;disasm -->
<g id="edge6" class="edge">
<title>scriptgen&#45;&gt;disasm</title>
<path fill="none" stroke="#999999" stroke-width="0.7" d="M340.43,-314.58C340.43,-314.58 340.43,-271.24 340.43,-271.24"/>
<polygon fill="#999999" stroke="#999999" stroke-width="0.7" points="342.18,-271.24 340.43,-266.24 338.68,-271.24 342.18,-271.24"/>
</g>
<!-- scriptjson -->
<g id="node10" class="node">
<title>scriptjson</title>
<polygon fill="#e8e4da" stroke="#c4b99a" stroke-width="0.8" points="627.6,-31.41 498,-31.41 498,-2.61 627.6,-2.61 627.6,-31.41"/>
<text xml:space="preserve" text-anchor="middle" x="562.8" y="-14.08" font-family="Georgia" font-size="9.00">script.json</text>
</g>
<!-- scriptgen&#45;&gt;scriptjson -->
<g id="edge13" class="edge">
<title>scriptgen&#45;&gt;scriptjson</title>
<path fill="none" stroke="#999999" stroke-width="0.7" d="M394.8,-327C473.64,-327 565.16,-327 565.16,-327 565.16,-327 565.16,-37.61 565.16,-37.61"/>
<polygon fill="#999999" stroke="#999999" stroke-width="0.7" points="566.91,-37.61 565.16,-32.61 563.41,-37.61 566.91,-37.61"/>
</g>
<!-- il2cpph -->
<g id="node11" class="node">
<title>il2cpph</title>
<polygon fill="#e8e4da" stroke="#c4b99a" stroke-width="0.8" points="129.6,-31.41 0,-31.41 0,-2.61 129.6,-2.61 129.6,-31.41"/>
<text xml:space="preserve" text-anchor="middle" x="64.8" y="-14.08" font-family="Georgia" font-size="9.00">il2cpp.h</text>
</g>
<!-- scriptgen&#45;&gt;il2cpph -->
<g id="edge14" class="edge">
<title>scriptgen&#45;&gt;il2cpph</title>
<path fill="none" stroke="#999999" stroke-width="0.7" d="M170.76,-333C129.45,-333 92.55,-333 92.55,-333 92.55,-333 92.55,-37.47 92.55,-37.47"/>
<polygon fill="#999999" stroke="#999999" stroke-width="0.7" points="94.3,-37.47 92.55,-32.47 90.8,-37.47 94.3,-37.47"/>
</g>
<!-- scripts -->
<g id="node13" class="node">
<title>scripts</title>
<polygon fill="#e8e4da" stroke="#c4b99a" stroke-width="0.8" points="295.6,-34.02 166,-34.02 166,0 295.6,0 295.6,-34.02"/>
<text xml:space="preserve" text-anchor="middle" x="230.8" y="-19.71" font-family="Georgia" font-size="9.00">Ghidra + IDA</text>
<text xml:space="preserve" text-anchor="middle" x="230.8" y="-8.46" font-family="Georgia" font-size="9.00">scripts</text>
</g>
<!-- scriptgen&#45;&gt;scripts -->
<g id="edge15" class="edge">
<title>scriptgen&#45;&gt;scripts</title>
<path fill="none" stroke="#999999" stroke-width="0.7" d="M228.75,-314.43C228.75,-314.43 228.75,-40.29 228.75,-40.29"/>
<polygon fill="#999999" stroke="#999999" stroke-width="0.7" points="230.5,-40.29 228.75,-35.29 227,-40.29 230.5,-40.29"/>
</g>
<!-- signal -->
<g id="node8" class="node">
<title>signal</title>
<polygon fill="#ffffff" stroke="#dddddd" stroke-width="0.8" points="502.73,-188.02 286.88,-188.02 286.88,-152.02 502.73,-152.02 502.73,-188.02"/>
<text xml:space="preserve" text-anchor="middle" x="394.8" y="-172.52" font-family="Georgia" font-size="10.00">Signal classification</text>
<text xml:space="preserve" text-anchor="middle" x="394.8" y="-160.52" font-family="Georgia" font-size="10.00">crypto, network, obfuscation, native interop</text>
</g>
<!-- disasm&#45;&gt;signal -->
<g id="edge7" class="edge">
<title>disasm&#45;&gt;signal</title>
<path fill="none" stroke="#999999" stroke-width="0.7" d="M390.05,-228.77C390.05,-228.77 390.05,-194.46 390.05,-194.46"/>
<polygon fill="#999999" stroke="#999999" stroke-width="0.7" points="391.8,-194.46 390.05,-189.46 388.3,-194.46 391.8,-194.46"/>
</g>
<!-- signal&#45;&gt;metagen -->
<g id="edge8" class="edge">
<title>signal&#45;&gt;metagen</title>
<path fill="none" stroke="#999999" stroke-width="0.7" d="M395.8,-151.77C395.8,-151.77 395.8,-117.46 395.8,-117.46"/>
<polygon fill="#999999" stroke="#999999" stroke-width="0.7" points="397.55,-117.46 395.8,-112.46 394.05,-117.46 397.55,-117.46"/>
</g>
<!-- unitymeta -->
<g id="node12" class="node">
<title>unitymeta</title>
<polygon fill="#e8e4da" stroke="#c4b99a" stroke-width="0.8" points="461.6,-31.41 332,-31.41 332,-2.61 461.6,-2.61 461.6,-31.41"/>
<text xml:space="preserve" text-anchor="middle" x="396.8" y="-14.08" font-family="Georgia" font-size="9.00">unity_meta.json</text>
</g>
<!-- metagen&#45;&gt;unitymeta -->
<g id="edge16" class="edge">
<title>metagen&#45;&gt;unitymeta</title>
<path fill="none" stroke="#999999" stroke-width="0.7" d="M396.8,-74.62C396.8,-74.62 396.8,-37.74 396.8,-37.74"/>
<polygon fill="#999999" stroke="#999999" stroke-width="0.7" points="398.55,-37.74 396.8,-32.74 395.05,-37.74 398.55,-37.74"/>
</g>
</g>
</svg>
